<!DOCTYPE svg PUBLIC "-//W3C//DTD SVG 20010904//EN" "http://www.w3.org/TR/2001/REC-SVG-20010904/DTD/svg10.dtd">
<svg version="1.0" xmlns="http://www.w3.org/2000/svg" width="404px" height="549px" viewBox="0 0 4040 5490" preserveAspectRatio="xMidYMid meet"><g fill="#000000" stroke="none">
 <path d="M0 5458 c0 -18 7 -67 17 -110 l16 -77 614 -762 c338 -418 612 -766 610 -773 -2 -6 -253 -133 -558 -282 -448 -219 -554 -275 -553 -290 0 -27 133 -194 154 -194 10 0 55 17 101 39 106 48 158 61 255 61 69 0 86 -4 150 -36 41 -20 95 -58 125 -88 44 -43 555 -687 584 -735 6 -11 -15 -13 -126 -9 -174 6 -242 31 -334 122 -75 75 -118 156 -179 336 -26 74 -54 141 -63 148 -26 19 -247 17 -263 -3 -11 -13 5 -90 89 -443 69 -288 108 -431 119 -439 12 -10 128 -13 501 -13 267 0 491 -4 497 -8 8 -6 886 -1126 965 -1232 125 -168 81 -284 -161 -414 -67 -37 -95 -57 -95 -70 0 -23 114 -173 137 -181 31 -11 120 30 868 396 660 322 610 281 511 417 -39 52 -68 82 -80 82 -10 0 -57 -18 -105 -41 -212 -99 -374 -87 -509 39 -39 37 -765 953 -790 998 -7 12 43 14 352 14 198 0 366 3 375 6 9 4 16 18 16 34 0 30 -24 152 -36 183 -3 10 -289 367 -635 795 -346 427 -629 780 -629 783 0 7 348 175 405 196 56 20 189 27 259 14 146 -27 260 -106 508 -349 l197 -193 33 15 c18 7 77 35 131 61 86 41 98 50 95 70 -3 25 -736 918 -767 934 -21 12 -87 -18 -656 -298 -214 -106 -397 -190 -406 -189 -16 3 -1019 1233 -1019 1250 0 12 1313 10 1390 -3 85 -14 189 -69 244 -130 59 -66 115 -179 166 -334 23 -71 49 -136 58 -142 16 -14 225 -19 256 -7 9 3 16 18 16 33 0 14 -43 203 -95 420 -52 217 -95 403 -95 413 0 17 -49 18 -1330 18 l-1330 0 0 -32z m1981 -2604 c277 -344 508 -632 512 -640 7 -12 -10 -14 -110 -14 -65 0 -123 4 -129 8 -14 9 -924 1171 -931 1188 -4 12 116 82 143 84 6 0 238 -282 515 -626z"/>
 </g>

</svg>